<svg width="341" height="69" viewBox="0 0 341 69" fill="none" xmlns="http://www.w3.org/2000/svg">
<path d="M340.5 -56C340.5 -27.2433 321.571 -1.12979 290.8 17.8205C260.036 36.7658 217.505 48.5 170.5 48.5C123.495 48.5 80.9641 36.7658 50.2005 17.8205C19.4289 -1.12979 0.5 -27.2433 0.5 -56C0.5 -84.7567 19.4289 -110.87 50.2005 -129.82C80.9641 -148.766 123.495 -160.5 170.5 -160.5C217.505 -160.5 260.036 -148.766 290.8 -129.82C321.571 -110.87 340.5 -84.7567 340.5 -56Z" stroke="black" stroke-opacity="0.12"/>
<path d="M340.5 -76C340.5 -18.3644 284.845 28.5 216 28.5C147.155 28.5 91.5 -18.3644 91.5 -76C91.5 -133.636 147.155 -180.5 216 -180.5C284.845 -180.5 340.5 -133.636 340.5 -76Z" stroke="black" stroke-opacity="0.12"/>
<path d="M340.5 -36C340.5 -7.24326 321.571 18.8702 290.8 37.8205C260.036 56.7658 217.505 68.5 170.5 68.5C123.495 68.5 80.9641 56.7658 50.2005 37.8205C19.4289 18.8702 0.5 -7.24326 0.5 -36C0.5 -64.7567 19.4289 -90.8702 50.2005 -109.82C80.9641 -128.766 123.495 -140.5 170.5 -140.5C217.505 -140.5 260.036 -128.766 290.8 -109.82C321.571 -90.8702 340.5 -64.7567 340.5 -36Z" stroke="black" stroke-opacity="0.12"/>
<circle cx="236" cy="-96" r="104.5" stroke="black" stroke-opacity="0.12"/>
</svg>